{"title":"Two Moon Junction (1988).avi","uid":5947246,"size":1661572814,"categoryP":"video","categoryS":"movies","magnet":"?xt=urn:btih:35e563ba27da1929b9935ef95b0653967dcc2e08&amp;dn=Two+Moon+Junction+%281988%29.avi&amp;tr=udp%3A%2F%2Ftracker.openbittorrent.com%3A80&amp;tr=udp%3A%2F%2Fopen.demonii.com%3A1337&amp;tr=udp%3A%2F%2Ftracker.coppersurfer.tk%3A6969&amp;tr=udp%3A%2F%2Fexodus.desync.com%3A6969","seeders":6,"leechers":1,"uploader":"Beebe85","files":-1,"time":1289413172,"description":"Two Moon Junction (1988) DVD rip\n\n &lt;a href=&quot;\nhttp://www.imdb.com/title/tt0096324/&quot; rel=&quot;nofollow&quot; target=&quot;_NEW&quot;&gt;\nhttp://www.imdb.com/title/tt0096324/&lt;/a&gt;\n\n\n\nGeneral\nComplete name                    : Two Moon Junction (1988).avi\nFormat                           : AVI\nFormat/Info                      : Audio Video Interleave\nFile size                        : 1.55 GiB\nDuration                         : 1h 40mn\nOverall bit rate                 : 2 199 Kbps\nMovie name                       : two moon junction.Title2.DVDRip\nWriting application              : Lavf52.33.0\nOriginal source form/Name        : two moon junction dvd\n\nVideo\nID                               : 0\nFormat                           : MPEG-4 Visual\nFormat profile                   : AdvancedSimple@L5\nFormat settings, BVOP            : Yes\nFormat settings, QPel            : No\nFormat settings, GMC             : No warppoints\nFormat settings, Matrix          : Default (H.263)\nMuxing mode                      : Packed bitstream\nCodec ID                         : XVID\nCodec ID/Hint                    : XviD\nDuration                         : 1h 40mn\nBit rate                         : 2 001 Kbps\nWidth                            : 720 pixels\nHeight                           : 388 pixels\nDisplay aspect ratio             : 1.856\nFrame rate                       : 25.000 fps\nResolution                       : 24 bits\nColorimetry                      : 4:2:0\nScan type                        : Progressive\nBits/(Pixel*Frame)               : 0.287\nStream size                      : 1.40 GiB (91%)\nWriting library                  : XviD 1.2.1 (UTC 2008-12-04)\n\nAudio\nID                               : 1\nFormat                           : AC-3\nFormat/Info                      : Audio Coding 3\nCodec ID                         : 2000\nDuration                         : 1h 40mn\nBit rate mode                    : Constant\nBit rate                         : 192 Kbps\nChannel(s)                       : 2 channels\nChannel positions                : L R\nSampling rate                    : 48.0 KHz\nStream size                      : 138 MiB (9%)\nAlignment                        : Aligned on interleaves\nInterleave, duration             : 32 ms (0.80 video frame)\nInterleave, preload duration   ","torrent":{"xt":"urn:btih:35e563ba27da1929b9935ef95b0653967dcc2e08","amp;dn":"Two+Moon+Junction+%281988%29.avi","amp;tr":["udp%3A%2F%2Ftracker.openbittorrent.com%3A80","udp%3A%2F%2Fopen.demonii.com%3A1337","udp%3A%2F%2Ftracker.coppersurfer.tk%3A6969","udp%3A%2F%2Fexodus.desync.com%3A6969"],"infoHash":"35e563ba27da1929b9935ef95b0653967dcc2e08","infoHashBuffer":{"type":"Buffer","data":[53,229,99,186,39,218,25,41,185,147,94,249,91,6,83,150,125,204,46,8]},"announce":[],"urlList":[]}}